<?xml version="1.0" standalone="no"?>
<!DOCTYPE svg PUBLIC "-//W3C//DTD SVG 20010904//EN"
 "http://www.w3.org/TR/2001/REC-SVG-20010904/DTD/svg10.dtd">
<svg version="1.0" xmlns="http://www.w3.org/2000/svg"
 width="780.000000pt" height="779.000000pt" viewBox="0 0 780.000000 779.000000"
 preserveAspectRatio="xMidYMid meet">

<g transform="translate(0.000000,779.000000) scale(0.100000,-0.100000)"
fill="#000000" stroke="none">
<path d="M0 3895 l0 -3895 3900 0 3900 0 0 3895 0 3895 -3900 0 -3900 0 0
-3895z m3720 2835 c10 -5 23 -25 29 -42 10 -30 61 -275 75 -359 9 -53 30 -66
126 -79 489 -65 883 -246 1194 -549 276 -269 462 -546 595 -886 42 -108 97
-322 124 -480 l13 -80 65 -12 c35 -6 134 -23 219 -38 85 -15 178 -35 205 -44
45 -14 50 -19 53 -49 3 -27 -1 -34 -22 -42 -43 -16 -192 -48 -381 -81 -205
-37 -265 -44 -300 -35 -25 6 -25 7 -25 124 -1 395 -111 742 -347 1094 -162
243 -302 392 -505 535 -304 216 -684 343 -1078 359 -242 10 -571 -55 -817
-163 -323 -142 -595 -357 -801 -635 -201 -271 -320 -544 -379 -873 -25 -138
-24 -460 0 -595 40 -216 112 -432 194 -580 90 -162 256 -382 375 -495 350
-335 759 -524 1231 -570 64 -6 73 -10 130 -59 87 -73 92 -92 91 -346 -1 -199
-16 -377 -35 -429 -31 -81 -91 -33 -104 83 -27 243 -85 554 -106 566 -6 4 -19
6 -28 3 -24 -6 -186 23 -317 57 -213 55 -374 125 -579 251 -159 98 -247 167
-404 321 -159 156 -239 251 -328 391 -170 268 -268 542 -307 850 -7 59 -15
110 -18 112 -18 18 -430 115 -490 115 -4 0 -14 7 -22 16 -19 18 -8 47 23 64
26 13 392 80 442 80 23 0 41 5 43 13 2 6 18 95 35 197 66 390 214 714 475
1039 280 348 694 605 1161 720 122 30 235 51 283 53 28 1 46 7 51 17 10 20 47
181 65 288 21 119 34 161 54 172 21 13 20 13 42 1z m1750 -620 c45 -23 69 -49
86 -97 32 -90 2 -176 -80 -230 -57 -39 -108 -43 -164 -14 -66 34 -122 111
-122 168 0 38 43 127 75 155 55 49 131 56 205 18z m-1521 -235 c215 -32 332
-68 526 -160 180 -86 278 -159 465 -344 129 -128 184 -190 238 -272 75 -113
173 -301 215 -414 67 -177 107 -397 107 -577 -2 -472 -161 -862 -496 -1216
l-79 -83 -48 108 c-27 59 -71 163 -98 231 l-49 122 64 148 c71 162 97 243 133
407 75 345 14 862 -139 1168 -93 187 -281 462 -361 529 -36 30 -193 95 -204
85 -2 -2 34 -51 80 -108 100 -125 157 -206 157 -225 0 -10 -11 -8 -46 8 -35
15 -61 19 -101 16 l-55 -5 -74 82 c-124 135 -324 293 -375 294 -14 1 -16 -48
-22 -456 -4 -251 -10 -459 -13 -462 -4 -3 -9 0 -11 7 -6 17 -82 15 -117 -3
-16 -9 -32 -13 -35 -9 -3 3 -8 215 -9 471 -3 406 -6 464 -19 459 -8 -3 -19 -6
-23 -6 -20 0 -210 -153 -271 -217 -226 -240 -383 -554 -453 -908 -20 -99 -46
-326 -40 -337 3 -4 97 -8 209 -8 l203 0 -14 -47 c-8 -25 -14 -66 -14 -90 l0
-43 -195 0 -195 0 0 -24 c0 -49 51 -376 70 -452 94 -366 304 -702 584 -931 45
-37 85 -70 91 -75 12 -11 -75 -188 -93 -188 -8 0 -77 16 -154 36 -218 56 -348
117 -584 275 -186 124 -375 315 -498 502 -106 162 -174 318 -230 527 -37 142
-49 240 -48 400 2 227 24 366 94 580 145 445 471 813 923 1042 165 84 316 130
555 171 64 11 358 6 449 -8z m1682 -280 c208 -216 446 -734 484 -1056 l7 -56
-46 -16 c-57 -20 -53 -26 -96 148 -37 150 -97 309 -180 480 -67 138 -111 208
-221 356 -43 58 -86 122 -94 143 -15 35 -15 37 6 44 59 22 84 15 140 -43z
m-1168 -578 c96 -56 148 -150 148 -267 1 -153 -138 -290 -294 -290 -86 0 -155
28 -218 90 -65 64 -89 122 -89 216 0 122 89 237 209 271 26 7 80 11 122 10 61
-3 86 -9 122 -30z m-645 -542 c76 -32 121 -102 122 -188 0 -54 -16 -90 -55
-127 -26 -24 -32 -25 -185 -28 -106 -2 -166 0 -180 8 -25 13 -59 83 -60 121 0
45 30 116 65 152 66 67 207 97 293 62z m380 -131 c99 -20 202 -74 253 -132 22
-25 58 -82 80 -126 39 -77 41 -85 37 -152 -5 -77 -42 -171 -94 -239 -31 -41
-126 -118 -202 -165 -41 -25 -206 -90 -229 -90 -1 0 -3 34 -3 75 0 73 1 76 28
86 167 67 260 137 307 229 40 79 43 138 12 202 -15 30 -39 66 -54 80 -38 36
-136 83 -207 99 l-58 13 6 35 c3 20 6 51 6 69 0 38 6 39 118 16z m-30 -308
c31 -16 112 -100 112 -116 0 -18 -37 -84 -56 -101 -28 -25 -120 -69 -144 -69
-15 0 -20 7 -20 26 0 38 20 267 25 281 5 14 28 8 83 -21z m-262 -314 c-5 -322
-8 -339 -75 -365 -59 -24 -174 -22 -231 4 -99 45 -134 107 -144 260 l-6 86 38
7 c20 3 92 6 158 6 67 0 136 3 154 6 32 7 32 7 27 57 -4 27 -9 52 -12 56 -4 3
-86 8 -183 11 l-177 5 -3 73 -3 72 230 0 230 0 -3 -278z m1898 192 l46 -7 0
-65 c0 -79 -39 -257 -90 -412 -106 -323 -337 -671 -621 -936 -290 -271 -765
-486 -1151 -520 l-77 -7 -5 34 c-3 19 -7 52 -9 74 -2 22 -7 48 -11 57 -6 14 0
18 41 23 323 43 641 160 908 337 175 116 414 372 537 575 22 38 46 75 53 83 8
8 40 69 73 135 80 160 136 333 162 505 21 138 17 130 59 130 21 0 59 -3 85 -6z
m287 -193 c27 -2 30 -28 14 -133 -26 -177 -141 -502 -236 -671 -79 -139 -212
-340 -304 -457 -97 -123 -302 -326 -425 -421 -180 -139 -492 -302 -680 -355
-25 -7 -77 -22 -116 -33 -74 -21 -255 -55 -358 -66 -58 -7 -59 -6 -53 17 4 12
12 57 18 99 l12 76 106 13 c504 58 985 315 1334 711 108 123 166 197 242 314
174 266 255 451 321 735 20 85 41 161 47 168 5 7 21 10 36 8 14 -2 33 -5 42
-5z m-1611 -328 c57 -117 105 -221 205 -443 53 -118 100 -219 105 -225 23 -32
19 -45 -23 -66 -23 -12 -53 -30 -66 -40 -13 -11 -29 -19 -35 -19 -6 0 -47 57
-91 128 -44 70 -105 167 -137 216 -32 49 -61 99 -64 111 -4 15 7 49 29 97 39
82 63 155 54 164 -21 21 -88 -39 -156 -141 -51 -75 -238 -405 -349 -615 -31
-58 -72 -132 -91 -165 l-36 -60 -89 -3 c-87 -3 -88 -3 -81 20 10 30 113 288
160 398 20 47 43 103 51 125 8 22 25 67 38 100 13 33 41 107 62 165 21 58 44
115 51 126 9 15 46 32 111 53 53 17 142 55 197 85 55 30 105 54 111 55 6 1 26
-29 44 -66z m-2887 -255 c14 -18 66 -104 116 -191 114 -199 174 -282 312 -429
211 -225 497 -430 760 -544 211 -91 425 -157 557 -170 69 -8 63 2 77 -119 3
-27 8 -58 11 -67 8 -26 -25 -23 -174 12 -377 91 -716 250 -997 467 -202 157
-403 377 -538 590 -158 250 -247 463 -192 463 8 0 15 5 15 10 0 21 30 9 53
-22z m2175 -34 c8 -6 -51 -192 -75 -235 -21 -39 -56 -69 -79 -69 -3 0 -4 69
-3 154 1 150 1 155 22 158 23 4 130 -2 135 -8z m632 -438 c39 -66 77 -131 86
-142 14 -21 13 -22 -28 -37 -24 -9 -88 -33 -143 -55 -55 -21 -134 -46 -175
-56 -41 -10 -81 -21 -88 -24 -19 -7 158 337 210 409 50 68 38 77 138 -95z"/>
<path d="M5340 6052 c-48 -24 -72 -62 -72 -111 2 -144 201 -156 228 -14 17 90
-77 165 -156 125z m82 -88 c17 -36 0 -59 -42 -59 -42 0 -59 23 -42 59 9 20 19
26 42 26 23 0 33 -6 42 -26z"/>
<path d="M3055 5546 c-197 -94 -394 -239 -532 -395 -225 -252 -371 -571 -408
-894 l-6 -57 253 2 253 3 3 55 c5 117 44 353 76 471 42 151 89 277 158 417 69
142 103 193 201 309 106 126 111 133 101 133 -5 0 -50 -20 -99 -44z"/>
<path d="M4435 5550 c11 -5 29 -9 40 -9 l20 0 -20 9 c-11 5 -29 9 -40 9 l-20
0 20 -9z"/>
<path d="M2115 3953 c29 -284 143 -559 330 -798 85 -109 271 -286 378 -362 79
-56 321 -183 348 -183 5 0 -26 41 -70 91 -279 315 -452 753 -478 1211 l-6 108
-255 0 -254 0 7 -67z"/>
<path d="M4254 4864 c-40 -20 -68 -68 -66 -116 2 -50 16 -74 55 -98 92 -56
206 19 194 128 -10 87 -97 129 -183 86z"/>
</g>
</svg>
